<svg height="512" viewBox="0 0 64 64" width="512" xmlns="http://www.w3.org/2000/svg"><g id="flat"><path d="m14.204 46.057-6.327-29.526 2.101.259 6 28z" fill="#8ec13f"/><path d="m44.432 57.198-26.009-8.67 1.893-1.476 24 8z" fill="#8ec13f"/><path d="m49.763 53.037-1.731-1.289 6-23 1.936.504z" fill="#8ec13f"/><path d="m9 7 2 4 4 .584-3 3.074 1 4.342-4-2-4 2 1-4.342-3-3.074 4-.584z" fill="#f98c96"/><path d="m55 21 2 3 3 .82-2.5 2.562.833 3.618-3.333-1.667-3.333 1.667.833-3.618-2.5-2.562 3-.82z" fill="#f98c96"/><path d="m17 42 2 3 3 .82-2.5 2.562.833 3.618-3.333-1.667-3.333 1.667.833-3.618-2.5-2.562 3-.82z" fill="#f98c96"/><path d="m47 48 2 4 4 .584-3 3.074 1 4.342-4-2-4 2 1-4.342-3-3.074 4-.584z" fill="#f98c96"/><circle cx="30" cy="28" fill="#d3843d" r="14"/><path d="m41 28h-2a9.01 9.01 0 0 0 -9-9v-2a11.013 11.013 0 0 1 11 11z" fill="#ad6327"/><circle cx="22" cy="29" fill="#66342e" r="2"/><circle cx="25" cy="22" fill="#66342e" r="3"/><circle cx="34" cy="33" fill="#66342e" r="2"/><path d="m39 30h2v2h-2z" fill="#ad6327"/><path d="m26 36h2v2h-2z" fill="#ad6327"/><path d="m31 22h2v2h-2z" fill="#ad6327"/><g fill="#f9bb4b"><path d="m58 41h2v2h-2z"/><path d="m58 45h2v2h-2z"/><path d="m56 43h2v2h-2z"/><path d="m60 43h2v2h-2z"/><path d="m4 26h2v2h-2z"/><path d="m4 30h2v2h-2z"/><path d="m2 28h2v2h-2z"/><path d="m6 28h2v2h-2z"/><path d="m35 44h2v2h-2z"/><path d="m35 48h2v2h-2z"/><path d="m33 46h2v2h-2z"/><path d="m37 46h2v2h-2z"/></g><path d="m59.93 5.62c-.45-1.08-2.68-1.05-5.68-.42l-.39.09 1.36 1.69c.11-.03.22-.05.32-.07a12.35 12.35 0 0 1 2.23-.31 10.783 10.783 0 0 1 -1.9 1.27c-1.16.66-2.58 1.37-3.79 1.97l-.53.27a34.823 34.823 0 0 1 -4.51 1.94 5.755 5.755 0 0 1 -2.13.44c.02-.34.52-.86 1.48-1.54.06-.04.12-.09.18-.13l-.34-2.2c-.07.05-.15.1-.22.15-1.61 1.16-3.62 2.94-2.94 4.61a1.728 1.728 0 0 0 1.02.96 2.488 2.488 0 0 0 .93.16 11.137 11.137 0 0 0 3.84-.98c.98-.38 2.16-.91 3.59-1.63l.53-.26q1.575-.78 2.88-1.47c3.01-1.6 4.74-2.9 4.07-4.54z" fill="#91cdf2"/><path d="m52.98 11.63q1.575-.78 2.88-1.47a5 5 0 0 1 -4.86 3.84 4.937 4.937 0 0 1 -2.14-.48c.98-.38 2.16-.91 3.59-1.63z" fill="#9362f5"/><path d="m51.55 10.11a34.823 34.823 0 0 1 -4.51 1.94 4.882 4.882 0 0 1 -1.04-3.05 1.7 1.7 0 0 1 .01-.23 5 5 0 0 1 8.24-3.57 4.93 4.93 0 0 1 1.29 1.71 5.178 5.178 0 0 1 .33.96c-1.16.66-2.58 1.37-3.79 1.97z" fill="#9362f5"/><circle cx="23" cy="7" fill="#fcf05a" r="2"/><circle cx="45" cy="42" fill="#fcf05a" r="2"/><circle cx="6" cy="39" fill="#fcf05a" r="3"/><path d="m38 8h2v2h-2z" fill="#e97424"/><path d="m47 18h2v2h-2z" fill="#e97424"/><path d="m23 55h2v2h-2z" fill="#e97424"/></g></svg>