<?xml version="1.0" encoding="utf-8"?>
<!-- Generator: Adobe Illustrator 22.0.0, SVG Export Plug-In . SVG Version: 6.00 Build 0)  -->
<svg xmlns="http://www.w3.org/2000/svg" xmlns:xlink="http://www.w3.org/1999/xlink" version="1.1" id="Layer_1" x="0px" y="0px" viewBox="0 0 500 500" style="enable-background:new 0 0 500 500;" xml:space="preserve" width="512" height="512">
<style type="text/css">
	.st0{fill:#83E1E5;}
	.st1{fill:#AAB1BA;}
	.st2{fill:#ECF4F7;}
	.st3{fill:#FDDF7F;}
	.st4{fill:#1C1D21;}
	.st5{fill:#FFFFFF;}
</style>
<g>
	<g>
		<circle class="st3" cx="250" cy="250" r="57.903"/>
	</g>
</g>
<g>
	<g>
		<circle class="st0" cx="250" cy="360.159" r="26.108"/>
	</g>
</g>
<g>
	<g>
		<circle class="st0" cx="194.783" cy="468.892" r="26.108"/>
	</g>
</g>
<g>
	<g>
		<circle class="st0" cx="305.217" cy="468.892" r="26.108"/>
	</g>
</g>
<g>
	<g>
		<circle class="st0" cx="250" cy="139.841" r="26.108"/>
	</g>
</g>
<g>
	<g>
		<circle class="st0" cx="305.217" cy="31.108" r="26.108"/>
	</g>
</g>
<g>
	<g>
		<circle class="st0" cx="194.783" cy="31.108" r="26.108"/>
	</g>
</g>
<g>
	<g>
		<circle class="st0" cx="139.841" cy="250" r="26.108"/>
	</g>
</g>
<g>
	<g>
		<circle class="st0" cx="31.108" cy="194.783" r="26.108"/>
	</g>
</g>
<g>
	<g>
		<circle class="st0" cx="31.108" cy="305.217" r="26.108"/>
	</g>
</g>
<g>
	<g>
		<circle class="st0" cx="360.159" cy="250" r="26.108"/>
	</g>
</g>
<g>
	<g>
		<circle class="st0" cx="468.892" cy="305.217" r="26.108"/>
	</g>
</g>
<g>
	<g>
		<circle class="st0" cx="468.892" cy="194.783" r="26.108"/>
	</g>
</g>
<path class="st4" d="M108.536,15.833c0-2.761,2.239-5,5-5h5.833V5c0-2.761,2.239-5,5-5s5,2.239,5,5v5.833h5.833c2.761,0,5,2.239,5,5  s-2.239,5-5,5h-5.833v5.833c0,2.761-2.239,5-5,5s-5-2.239-5-5v-5.833h-5.833C110.775,20.833,108.536,18.594,108.536,15.833z   M129.369,44.752c0-2.761-2.239-5-5-5s-5,2.239-5,5v4.723c0,2.761,2.239,5,5,5s5-2.239,5-5V44.752z M124.369,65.138  c-2.761,0-5,2.239-5,5v43.596c0,2.761,2.239,5,5,5s5-2.239,5-5V70.138C129.369,67.376,127.13,65.138,124.369,65.138z   M386.464,479.167h-5.833v-5.833c0-2.761-2.239-5-5-5s-5,2.239-5,5v5.833h-5.833c-2.761,0-5,2.239-5,5s2.239,5,5,5h5.833V495  c0,2.761,2.239,5,5,5s5-2.239,5-5v-5.833h5.833c2.761,0,5-2.239,5-5S389.225,479.167,386.464,479.167z M370.631,455.248  c0,2.761,2.239,5,5,5s5-2.239,5-5v-4.723c0-2.761-2.239-5-5-5s-5,2.239-5,5V455.248z M375.631,434.862c2.761,0,5-2.239,5-5v-43.596  c0-2.761-2.239-5-5-5s-5,2.239-5,5v43.596C370.631,432.624,372.87,434.862,375.631,434.862z M500,305.217  c0,17.153-13.955,31.108-31.107,31.108c-15.451,0-28.301-11.325-30.701-26.108h-18.585c-7.038,0-12.763-5.725-12.763-12.762V255  h-15.985c-2.399,14.783-15.25,26.107-30.7,26.107s-28.301-11.324-30.7-26.107h-16.773c-2.428,30.703-26.984,55.258-57.686,57.687  v16.772c14.783,2.399,26.107,15.25,26.107,30.7s-11.324,28.301-26.107,30.7v15.985h42.455c7.037,0,12.762,5.725,12.762,12.763  v18.585c14.783,2.399,26.108,15.25,26.108,30.701c0,17.153-13.955,31.107-31.108,31.107s-31.107-13.955-31.107-31.107  c0-15.451,11.324-28.301,26.107-30.701v-18.585c0-1.523-1.239-2.763-2.762-2.763h-94.909c-1.523,0-2.762,1.239-2.762,2.763v18.585  c14.783,2.399,26.107,15.25,26.107,30.701c0,17.153-13.955,31.107-31.107,31.107s-31.108-13.955-31.108-31.107  c0-15.451,11.324-28.301,26.108-30.701v-18.585c0-7.038,5.725-12.763,12.762-12.763H245v-15.985  c-14.783-2.399-26.107-15.25-26.107-30.7s11.324-28.301,26.107-30.7v-16.772c-30.702-2.429-55.258-26.984-57.686-57.687h-16.773  c-2.399,14.783-15.25,26.107-30.7,26.107s-28.301-11.324-30.7-26.107H93.156v42.455c0,7.037-5.725,12.762-12.763,12.762H61.808  c-2.4,14.783-15.25,26.108-30.701,26.108C13.955,336.325,0,322.37,0,305.217s13.955-31.107,31.107-31.107  c15.451,0,28.301,11.324,30.701,26.107h18.585c1.523,0,2.763-1.239,2.763-2.762v-94.909c0-1.523-1.239-2.762-2.763-2.762H61.808  c-2.4,14.783-15.25,26.107-30.701,26.107C13.955,225.891,0,211.936,0,194.783s13.955-31.108,31.107-31.108  c15.451,0,28.301,11.324,30.701,26.108h18.585c7.038,0,12.763,5.725,12.763,12.762V245h15.985  c2.399-14.783,15.25-26.107,30.7-26.107s28.301,11.324,30.7,26.107h16.773c2.428-30.702,26.984-55.258,57.686-57.687v-16.772  c-14.783-2.399-26.107-15.25-26.107-30.7s11.324-28.301,26.107-30.7V93.156h-42.455c-7.037,0-12.762-5.725-12.762-12.763V61.808  c-14.783-2.4-26.108-15.25-26.108-30.701C163.675,13.955,177.63,0,194.783,0s31.107,13.955,31.107,31.107  c0,15.451-11.324,28.301-26.107,30.701v18.585c0,1.523,1.239,2.763,2.762,2.763h94.909c1.523,0,2.762-1.239,2.762-2.763V61.808  c-14.783-2.399-26.107-15.25-26.107-30.701C274.109,13.955,288.064,0,305.217,0s31.108,13.955,31.108,31.107  c0,15.451-11.324,28.301-26.108,30.701v18.585c0,7.038-5.725,12.763-12.762,12.763H255v15.985  c14.783,2.399,26.107,15.25,26.107,30.7s-11.324,28.301-26.107,30.7v16.772c30.702,2.428,55.258,26.984,57.686,57.687h16.773  c2.399-14.783,15.25-26.107,30.7-26.107s28.301,11.324,30.7,26.107h15.985v-42.455c0-7.037,5.725-12.762,12.763-12.762h18.585  c2.4-14.783,15.25-26.108,30.701-26.108c17.153,0,31.107,13.955,31.107,31.108s-13.955,31.107-31.107,31.107  c-15.451,0-28.301-11.324-30.701-26.107h-18.585c-1.523,0-2.763,1.239-2.763,2.762v94.909c0,1.523,1.239,2.762,2.763,2.762h18.585  c2.4-14.783,15.25-26.107,30.701-26.107C486.045,274.109,500,288.064,500,305.217z M447.785,194.783  c0,11.639,9.469,21.107,21.108,21.107c11.639,0,21.107-9.469,21.107-21.107c0-11.639-9.469-21.108-21.107-21.108  C457.253,173.675,447.785,183.144,447.785,194.783z M305.217,52.215c11.639,0,21.108-9.469,21.108-21.108  c0-11.639-9.469-21.107-21.108-21.107c-11.639,0-21.107,9.469-21.107,21.107C284.109,42.747,293.578,52.215,305.217,52.215z   M194.783,52.215c11.639,0,21.107-9.469,21.107-21.108c0-11.639-9.469-21.107-21.107-21.107c-11.639,0-21.108,9.469-21.108,21.107  C173.675,42.747,183.144,52.215,194.783,52.215z M52.215,194.783c0-11.639-9.469-21.108-21.108-21.108  c-11.639,0-21.107,9.469-21.107,21.108c0,11.639,9.469,21.107,21.107,21.107C42.747,215.891,52.215,206.422,52.215,194.783z   M52.215,305.217c0-11.639-9.469-21.107-21.108-21.107c-11.639,0-21.107,9.469-21.107,21.107c0,11.639,9.469,21.108,21.107,21.108  C42.747,326.325,52.215,316.856,52.215,305.217z M194.783,447.785c-11.639,0-21.108,9.469-21.108,21.108  c0,11.639,9.469,21.107,21.108,21.107c11.639,0,21.107-9.469,21.107-21.107C215.891,457.253,206.422,447.785,194.783,447.785z   M305.217,447.785c-11.639,0-21.107,9.469-21.107,21.108c0,11.639,9.469,21.107,21.107,21.107c11.639,0,21.108-9.469,21.108-21.107  C326.325,457.253,316.856,447.785,305.217,447.785z M250,160.948c11.639,0,21.107-9.469,21.107-21.107s-9.469-21.107-21.107-21.107  s-21.107,9.469-21.107,21.107S238.361,160.948,250,160.948z M160.948,250c0-11.639-9.469-21.107-21.107-21.107  s-21.107,9.469-21.107,21.107s9.469,21.107,21.107,21.107S160.948,261.639,160.948,250z M250,339.052  c-11.639,0-21.107,9.469-21.107,21.107s9.469,21.107,21.107,21.107s21.107-9.469,21.107-21.107S261.639,339.052,250,339.052z   M302.903,250c0-29.171-23.732-52.903-52.903-52.903S197.097,220.829,197.097,250s23.732,52.903,52.903,52.903  S302.903,279.171,302.903,250z M381.267,250c0-11.639-9.469-21.107-21.107-21.107s-21.107,9.469-21.107,21.107  s9.469,21.107,21.107,21.107S381.267,261.639,381.267,250z M490,305.217c0-11.639-9.469-21.107-21.107-21.107  c-11.639,0-21.108,9.469-21.108,21.107c0,11.639,9.469,21.108,21.108,21.108C480.531,326.325,490,316.856,490,305.217z"/>
</svg>
